<?xml version="1.0" encoding="iso-8859-1"?>
<!-- Generator: Adobe Illustrator 19.0.0, SVG Export Plug-In . SVG Version: 6.00 Build 0)  -->
<svg version="1.1" id="Capa_1" xmlns="http://www.w3.org/2000/svg" xmlns:xlink="http://www.w3.org/1999/xlink" x="0px" y="0px"
	 viewBox="0 0 512 512" style="enable-background:new 0 0 512 512;" xml:space="preserve">
<rect style="fill:#71CFF4;" width="512" height="512"/>
<path style="fill:#59B7E3;" d="M512,353.792V512H243.2L121.856,390.656l-0.512-0.512c0-39.424,30.208-73.216,74.24-90.112
	c17.408,14.848,38.4,23.04,59.904,23.04c3.072,0,6.144,0,9.216-0.512l-51.712-52.224c-14.848-15.36-24.576-38.912-24.576-65.024
	c0-14.848,3.072-29.184,8.704-41.472c11.264-25.6,33.28-43.008,58.368-43.008c15.36,0,29.184,6.144,40.448,16.896
	c1.024,1.024,1.536,1.536,2.56,2.56L512,353.792z"/>
<path style="fill:#FFFFFF;" d="M315.904,300.032c-17.408,14.848-38.4,23.04-59.904,23.04s-43.008-8.192-59.904-23.04
	c-44.032,16.384-74.24,50.688-74.24,90.112c72.704,0,215.552,0,269.312,0C390.656,351.232,360.448,316.928,315.904,300.032
	L315.904,300.032z M256,121.344c-37.376,0-67.072,37.888-67.072,83.968c0,46.592,30.208,83.968,67.072,83.968
	c37.376,0,67.072-37.888,67.072-83.968S293.376,121.344,256,121.344L256,121.344z"/>
<g>
</g>
<g>
</g>
<g>
</g>
<g>
</g>
<g>
</g>
<g>
</g>
<g>
</g>
<g>
</g>
<g>
</g>
<g>
</g>
<g>
</g>
<g>
</g>
<g>
</g>
<g>
</g>
<g>
</g>
</svg>
